<svg width="375" height="400" viewBox="0 0 375 400" fill="none" xmlns="http://www.w3.org/2000/svg">
<path d="M70.3335 42.75H303.667C316.928 42.75 329.645 48.0178 339.022 57.3947C348.399 66.7715 353.667 79.4892 353.667 92.75V226.083C353.667 239.344 348.399 252.062 339.022 261.439C329.645 270.815 316.928 276.083 303.667 276.083H187.7L80.3002 356.217C77.8205 358.067 74.8748 359.19 71.7929 359.461C68.711 359.732 65.6145 359.14 62.8501 357.751C60.0857 356.361 57.7625 354.23 56.1406 351.596C54.5187 348.961 53.6622 345.927 53.6668 342.833V276.067C44.8263 276.067 36.3478 272.555 30.0966 266.304C23.8454 260.052 20.3335 251.574 20.3335 242.733V92.7333C20.3335 79.4725 25.6013 66.7548 34.9782 57.378C44.355 48.0012 57.0727 42.75 70.3335 42.75Z" fill="white" fill-opacity="0.03"/>
<path d="M73.9903 144.688H60.3583L59.9743 156.464H72.1983L71.4943 163.248H59.7823L59.7183 165.36L60.4863 182H51.5263L52.2943 166.448L51.5263 137.84H74.6943L73.9903 144.688ZM87.1988 132.464L86.3668 165.36L87.0708 180.4L78.4308 182L79.1988 166.448L78.4308 134.064L87.1988 132.464ZM102.298 182C99.9943 182 98.1169 181.253 96.6663 179.76C95.2583 178.224 94.5543 176.219 94.5543 173.744L94.9383 166.384L94.2343 151.024L102.81 149.424L101.978 168.88C101.978 170.715 102.298 172.059 102.938 172.912C103.621 173.765 104.688 174.192 106.138 174.192C107.589 174.192 109.594 173.467 112.154 172.016V168.176L111.45 151.344L120.09 149.744L119.322 165.744L119.386 170.992C119.386 173.723 120.09 176.475 121.498 179.248L114.842 182.192C113.434 179.419 112.581 177.2 112.282 175.536C108.442 179.845 105.114 182 102.298 182ZM129.739 151.024V144.048L138.379 142.384L137.547 151.024H145.291L144.587 156.272H137.291L136.971 169.648C136.971 171.653 137.163 172.997 137.547 173.68C137.931 174.32 138.635 174.64 139.659 174.64C140.683 174.64 142.049 174.405 143.755 173.936L144.139 178.48C141.323 180.827 138.849 182 136.715 182C134.582 182 132.833 181.232 131.467 179.696C130.102 178.117 129.419 176.069 129.419 173.552L129.803 166.384L129.739 156.272H125.323L126.027 151.024H129.739ZM152.489 151.024V144.048L161.129 142.384L160.297 151.024H168.041L167.337 156.272H160.041L159.721 169.648C159.721 171.653 159.913 172.997 160.297 173.68C160.681 174.32 161.385 174.64 162.409 174.64C163.433 174.64 164.799 174.405 166.505 173.936L166.889 178.48C164.073 180.827 161.599 182 159.465 182C157.332 182 155.583 181.232 154.217 179.696C152.852 178.117 152.169 176.069 152.169 173.552L152.553 166.384L152.489 156.272H148.073L148.777 151.024H152.489ZM184.263 175.472C185.501 175.472 186.802 175.152 188.167 174.512C189.533 173.872 190.599 173.232 191.367 172.592L192.519 171.632L195.463 175.216C195.037 175.941 194.375 176.773 193.479 177.712C192.583 178.651 191.666 179.461 190.727 180.144C189.831 180.784 188.615 181.381 187.079 181.936C185.586 182.448 184.029 182.704 182.407 182.704C178.951 182.704 176.135 181.403 173.959 178.8C171.783 176.155 170.695 172.763 170.695 168.624C170.695 163.419 172.21 158.853 175.239 154.928C178.269 151.003 181.81 149.04 185.863 149.04C188.978 149.04 191.389 149.915 193.095 151.664C194.845 153.413 195.719 155.867 195.719 159.024C195.719 160.901 195.399 163.035 194.759 165.424L193.479 166.768L177.479 168.24C178.205 173.061 180.466 175.472 184.263 175.472ZM184.263 155.632C182.386 155.632 180.807 156.4 179.527 157.936C178.247 159.429 177.501 161.349 177.287 163.696L188.167 162.352C188.295 161.371 188.359 160.56 188.359 159.92C188.359 157.061 186.994 155.632 184.263 155.632ZM200.602 151.088L208.346 149.424C208.73 152.709 208.986 155.824 209.114 158.768C212.996 152.752 216.644 149.744 220.058 149.744L219.354 159.728C216.879 159.728 214.916 159.963 213.466 160.432C212.058 160.859 210.607 161.733 209.114 163.056V165.36L209.818 180.4L201.242 182L202.01 166.448C201.839 160.731 201.37 155.611 200.602 151.088ZM220.406 145.2L221.11 137.84H251.51L250.806 145.2L239.67 144.24L239.414 165.36L240.182 182H231.222L231.99 166.448L231.734 144.304L220.406 145.2ZM261.643 182C259.126 182 257.057 181.211 255.435 179.632C253.857 178.011 253.067 175.856 253.067 173.168C253.067 170.437 254.305 168.091 256.779 166.128C259.254 164.123 262.262 163.12 265.803 163.12H270.155V162.032C270.155 159.941 269.729 158.512 268.875 157.744C268.022 156.976 266.422 156.592 264.075 156.592C263.094 156.592 261.921 156.805 260.555 157.232C259.233 157.616 257.739 158.235 256.075 159.088L254.219 154.032C256.054 152.752 258.273 151.6 260.875 150.576C263.521 149.552 265.697 149.04 267.403 149.04C274.102 149.04 277.451 152.283 277.451 158.768V171.312C277.451 173.701 278.198 176.368 279.691 179.312L272.907 182.192C271.841 180.144 271.051 178.309 270.539 176.688C268.193 180.229 265.227 182 261.643 182ZM264.331 175.472C266.038 175.472 267.979 174.597 270.155 172.848V168.56C267.894 168.048 266.059 167.792 264.651 167.792C261.963 167.792 260.619 168.987 260.619 171.376C260.619 172.613 260.961 173.616 261.643 174.384C262.326 175.109 263.222 175.472 264.331 175.472ZM294.011 132.464L293.179 165.36L293.883 180.4L285.243 182L286.011 166.448L285.243 134.064L294.011 132.464ZM321.399 182.64L309.367 164.912V165.36L310.071 180.4L301.431 182L302.199 166.448L301.431 134.064L310.199 132.464L309.367 163.376L322.167 149.36L328.183 153.456L316.983 163.952L328.695 177.776L321.399 182.64Z" fill="white"/>
</svg>
